HIERARCHY
ROOT SpineBase
{
  OFFSET 0.000000 0.000000 0.000000
  CHANNELS 6 Xposition Yposition Zposition Zrotation Xrotation Yrotation
  JOINT SpineMid
  {
    OFFSET 0.000000 32.489620 0.000000
    CHANNELS 3 Zrotation Xrotation Yrotation
    JOINT SpineShoulder
    {
      OFFSET -0.299554 24.287474 -0.501109
      CHANNELS 3 Zrotation Xrotation Yrotation
      JOINT Neck
      {
        OFFSET -0.201075 8.053183 -0.439342
        CHANNELS 3 Zrotation Xrotation Yrotation
        JOINT Head
        {
          OFFSET -6.725361 10.999600 3.256484
          CHANNELS 3 Zrotation Xrotation Yrotation
          End Site
          {
            OFFSET 0 0 0
          }
        }
      }
      JOINT ShoulderLeft
      {
        OFFSET -6.149486 -6.702621 10.444489
        CHANNELS 3 Zrotation Xrotation Yrotation
        JOINT ElbowLeft
        {
          OFFSET -4.045798 -10.387877 -27.498911
          CHANNELS 3 Zrotation Xrotation Yrotation
          JOINT WristLeft
          {
            OFFSET 6.531436 -27.006488 1.281597
            CHANNELS 3 Zrotation Xrotation Yrotation
            JOINT HandLeft
            {
              OFFSET 3.238922 -15.636879 2.029372
              CHANNELS 3 Zrotation Xrotation Yrotation
              JOINT HandTipLeft
              {
                OFFSET -1.457970 -9.193543 -1.150122
                CHANNELS 3 Zrotation Xrotation Yrotation
                End Site
                {
                  OFFSET 0 0 0
                }
              }
              JOINT ThumbLeft
              {
                OFFSET 3.931558 -0.951650 -7.011549
                CHANNELS 3 Zrotation Xrotation Yrotation
                End Site
                {
                  OFFSET 0 0 0
                }
              }
            }
          }
        }
      }
      JOINT ShoulderRight
      {
        OFFSET 7.783944 -2.021922 -11.688234
        CHANNELS 3 Zrotation Xrotation Yrotation
        JOINT ElbowRight
        {
          OFFSET 3.030497 -23.933926 -6.365192
          CHANNELS 3 Zrotation Xrotation Yrotation
          JOINT WristRight
          {
            OFFSET -3.729915 -26.102523 -1.553796
            CHANNELS 3 Zrotation Xrotation Yrotation
            JOINT HandRight
            {
              OFFSET -1.904829 -9.029432 1.199625
              CHANNELS 3 Zrotation Xrotation Yrotation
              JOINT HandTipRight
              {
                OFFSET -1.238780 -7.591563 -1.223820
                CHANNELS 3 Zrotation Xrotation Yrotation
                End Site
                {
                  OFFSET 0 0 0
                }
              }
              JOINT ThumbRight
              {
                OFFSET 3.983218 0.196871 -0.760954
                CHANNELS 3 Zrotation Xrotation Yrotation
                End Site
                {
                  OFFSET 0 0 0
                }
              }
            }
          }
        }
      }
    }
  }
  JOINT HipLeft
  {
    OFFSET -4.736064 0.499396 -0.157836
    CHANNELS 3 Zrotation Xrotation Yrotation
    JOINT KneeLeft
    {
      OFFSET 13.056647 -39.100766 -4.491404
      CHANNELS 3 Zrotation Xrotation Yrotation
      JOINT AnkleLeft
      {
        OFFSET 5.437422 -35.884029 15.530100
        CHANNELS 3 Zrotation Xrotation Yrotation
        JOINT FootLeft
        {
          OFFSET -6.675811 -7.863934 -1.492335
          CHANNELS 3 Zrotation Xrotation Yrotation
          End Site
          {
            OFFSET 0 0 0
          }
        }
      }
    }
  }
  JOINT HipRight
  {
    OFFSET 3.698401 2.422847 -6.707831
    CHANNELS 3 Zrotation Xrotation Yrotation
    JOINT KneeRight
    {
      OFFSET 2.370689 -30.235068 -3.242438
      CHANNELS 3 Zrotation Xrotation Yrotation
      JOINT AnkleRight
      {
        OFFSET 15.975485 -50.402297 8.045749
        CHANNELS 3 Zrotation Xrotation Yrotation
        JOINT FootRight
        {
          OFFSET -3.986257 -4.664222 -2.340253
          CHANNELS 3 Zrotation Xrotation Yrotation
          End Site
          {
            OFFSET 0 0 0
          }
        }
      }
    }
  }
}
MOTION
Frames: 8
Frame Time: 0.033333
50.000457 85.308274 352.717142 -0.000000 0.000000 37.832022 -0.000000 0.000000 -37.832022 -0.000000 0.000000 0.000000 -0.000000 0.000000 0.000000 0.000000 0.000000 0.000000 -0.000000 0.000000 0.000000 -0.000000 0.000000 0.000000 -0.000000 0.000000 0.000000 -0.000000 0.000000 0.000000 0.000000 0.000000 0.000000 0.000000 0.000000 0.000000 -0.000000 0.000000 0.000000 -0.000000 0.000000 0.000000 -0.000000 0.000000 0.000000 -0.000000 0.000000 0.000000 0.000000 0.000000 0.000000 0.000000 0.000000 0.000000 -0.000000 0.000000 -37.832022 -0.000000 0.000000 0.000000 -0.000000 0.000000 0.000000 0.000000 0.000000 0.000000 -0.000000 0.000000 -37.832022 -0.000000 0.000000 0.000000 -0.000000 0.000000 0.000000 0.000000 0.000000 0.000000
50.291102 85.739819 352.584433 0.477925 0.564177 39.221410 -0.726991 -0.134853 -39.224619 -0.000000 0.000000 0.000000 -0.000000 0.000000 0.000000 0.000000 0.000000 0.000000 -0.000000 0.000000 0.000000 -0.000000 0.000000 0.000000 -0.000000 0.000000 0.000000 -0.962208 -1.848422 0.398285 0.000000 0.000000 0.000000 0.000000 0.000000 0.000000 -0.000000 0.000000 0.000000 -0.000000 0.000000 0.000000 -0.000000 0.000000 0.000000 -1.107959 -0.484508 0.252767 0.000000 0.000000 0.000000 0.000000 0.000000 0.000000 -0.726991 -0.134853 -39.224619 -0.789325 -1.342692 -0.552100 4.491951 1.601264 -0.478826 0.000000 0.000000 0.000000 -0.980818 -1.385754 -39.380404 -0.597515 1.127914 0.158299 -4.008521 4.748876 -1.791560 0.000000 0.000000 0.000000
50.501890 86.096930 352.549805 0.903656 1.021666 40.270834 -0.148432 -0.186104 -40.248735 -0.186987 -0.203266 0.025533 -1.847978 -0.583336 0.262607 0.000000 0.000000 0.000000 -0.724331 -0.579697 -0.057648 -0.000000 0.000000 0.000000 0.685551 0.565346 0.202572 -2.425047 -3.896752 0.469517 0.000000 0.000000 0.000000 0.000000 0.000000 0.000000 0.262216 -0.146242 -0.258225 -0.984561 -0.437918 0.203064 -0.000000 0.000000 0.000000 -1.883590 -0.764078 0.415130 0.000000 0.000000 0.000000 0.000000 0.000000 0.000000 -0.921522 0.531445 -39.988520 -1.263598 -3.126532 -1.284999 8.118110 2.756156 -1.041108 0.000000 0.000000 0.000000 -1.731937 -2.332152 -40.554018 -1.998628 2.493668 0.372431 -5.493121 7.180063 -2.913169 0.000000 0.000000 0.000000
50.632820 86.379605 352.613257 1.274888 1.369176 41.013644 -0.210791 -0.231086 -40.986728 -0.245102 -0.274718 0.036320 -2.461253 -0.758374 0.339404 0.000000 0.000000 0.000000 -1.023519 -0.780290 -0.082280 -0.000000 0.000000 0.000000 0.971500 0.629091 0.250797 -3.281565 -5.072489 0.618640 0.000000 0.000000 0.000000 0.000000 0.000000 0.000000 0.387398 -0.122344 -0.361729 -1.406699 -0.666877 0.282376 -0.000000 0.000000 0.000000 -2.305730 -0.823117 0.488463 0.000000 0.000000 0.000000 0.000000 0.000000 0.000000 -1.447232 0.822127 -40.646239 -1.464527 -3.910609 -1.665447 10.843165 3.452770 -1.559857 0.000000 0.000000 0.000000 -2.217564 -2.888448 -41.380394 -2.687983 3.128754 0.516847 -6.417581 8.631248 -3.544769 0.000000 0.000000 0.000000
50.683892 86.587846 352.774791 1.589668 1.604194 41.470692 -0.261389 -0.245142 -41.441530 -0.278648 -0.325210 0.045841 -2.869010 -0.853766 0.385873 0.000000 0.000000 0.000000 -1.279131 -0.919967 -0.103010 -0.000000 0.000000 0.000000 1.219147 0.546314 0.265156 -3.892254 -5.718416 0.733897 0.000000 0.000000 0.000000 0.000000 0.000000 0.000000 0.515702 -0.028789 -0.450430 -1.787760 -0.905272 0.348157 0.404052 1.176691 -0.199128 -2.756750 -1.835969 0.614116 0.000000 0.000000 0.000000 0.000000 0.000000 0.000000 -2.015890 1.122785 -41.050591 -1.364675 -4.183785 -1.852807 12.650124 3.695888 -1.946606 0.000000 0.000000 0.000000 -2.415283 -3.088067 -41.877753 -3.173227 3.379980 0.616799 -6.509490 8.997672 -3.878541 0.000000 0.000000 0.000000
50.655107 86.721653 353.034405 1.846413 1.724964 41.650892 -0.298809 -0.229016 -41.621049 -0.287127 -0.354332 0.054067 -3.071784 -0.868638 0.404651 0.000000 0.000000 0.000000 -1.490212 -0.997984 -0.119183 -0.000000 0.000000 0.000000 1.428066 0.317472 0.246600 -4.253058 -5.828109 0.824155 0.000000 0.000000 0.000000 0.000000 0.000000 0.000000 0.651224 0.138029 -0.525623 -2.131027 -1.155510 0.401020 0.745907 1.671848 -0.265376 -2.766673 -1.925494 0.545649 0.000000 0.000000 0.000000 0.000000 0.000000 0.000000 -2.629097 1.426813 -41.207127 -0.959721 -3.948878 -1.842655 13.533607 3.494670 -2.152423 0.000000 0.000000 0.000000 -2.312447 -2.949451 -42.055762 -3.456131 3.255496 0.666743 -5.865960 8.380624 -3.959255 0.000000 0.000000 0.000000
50.603113 86.680404 353.332170 1.954513 1.725333 41.615692 -0.293144 -0.185221 -41.585844 -0.233823 -0.335075 0.061443 -3.157072 -0.760348 0.480737 0.000000 0.000000 0.000000 -1.626790 -1.053684 -0.130006 -0.000000 0.000000 0.000000 1.546656 -0.174316 0.166487 -4.303053 -3.288873 0.658473 0.000000 0.000000 0.000000 0.000000 0.000000 0.000000 0.796738 0.215826 -0.592113 -2.410476 -1.294289 0.452600 1.189185 2.821689 -0.469229 -1.319351 -4.259446 0.661200 0.000000 0.000000 0.000000 0.000000 0.000000 0.000000 -3.164730 2.038521 -41.047013 1.339779 -2.800734 -1.002687 8.931470 0.205699 -0.109498 0.000000 0.000000 0.000000 -0.796372 -2.921670 -42.029765 -5.032728 2.273484 0.654789 -5.753002 9.147107 -4.376001 0.000000 0.000000 0.000000
50.384775 86.609655 353.787759 2.030929 1.630654 41.335978 -0.317711 -0.122920 -41.307060 -0.217000 -0.328252 0.062560 -2.851073 -0.626887 0.434105 0.000000 0.000000 0.000000 -1.658692 -0.996788 -0.129800 -0.000000 0.000000 0.000000 1.585125 -0.727431 0.064879 -3.058981 -3.772023 0.817002 0.000000 0.000000 0.000000 0.000000 0.000000 0.000000 1.609288 1.210985 -0.718416 -2.645486 -2.843991 0.596471 2.058447 4.304601 -0.596628 -1.272396 -0.844585 -0.282754 0.000000 0.000000 0.000000 0.000000 0.000000 0.000000 -3.558574 2.438597 -40.707989 0.034866 -4.728957 -2.191486 14.296885 4.942695 -3.069192 0.000000 0.000000 0.000000 0.120590 -1.772644 -41.645448 -4.666074 0.788647 0.476430 -6.233034 9.118855 -4.188922 0.000000 0.000000 0.000000
